<svg width="940" height="271" viewBox="0 0 940 271" fill="none" xmlns="http://www.w3.org/2000/svg">
<path d="M35.7695 111.038V58.5381H58.2695V111.038H35.7695ZM35.0195 24.3381V0.0380859H59.0195V24.3381H35.0195Z" fill="white"/>
<path d="M76.1992 111.038V34.5381H98.2492V52.5381H98.6992V111.038H76.1992ZM129.449 111.038V63.6381C129.449 59.4381 128.349 56.2881 126.149 54.1881C124.049 52.0881 120.949 51.0381 116.849 51.0381C113.349 51.0381 110.199 51.8381 107.399 53.4381C104.699 55.0381 102.549 57.2381 100.949 60.0381C99.4492 62.8381 98.6992 66.1381 98.6992 69.9381L96.7492 51.4881C99.2492 45.8881 102.899 41.4381 107.699 38.1381C112.599 34.7381 118.599 33.0381 125.699 33.0381C134.199 33.0381 140.699 35.4381 145.199 40.2381C149.699 44.9381 151.949 51.2881 151.949 59.2881V111.038H129.449Z" fill="white"/>
<path d="M202.148 112.688C192.348 112.688 185.048 110.338 180.248 105.638C175.548 100.838 173.198 93.5881 173.198 83.8881V17.4381L195.698 9.03809V84.6381C195.698 88.0381 196.648 90.5881 198.548 92.2881C200.448 93.9881 203.398 94.8381 207.398 94.8381C208.898 94.8381 210.298 94.6881 211.598 94.3881C212.898 94.0881 214.198 93.7381 215.498 93.3381V110.438C214.198 111.138 212.348 111.688 209.948 112.088C207.648 112.488 205.048 112.688 202.148 112.688ZM158.948 51.6381V34.5381H215.498V51.6381H158.948Z" fill="white"/>
<path d="M262.346 112.538C253.846 112.538 246.446 110.888 240.146 107.588C233.846 104.188 228.946 99.4881 225.446 93.4881C222.046 87.4881 220.346 80.5881 220.346 72.7881C220.346 64.8881 222.046 57.9881 225.446 52.0881C228.946 46.0881 233.796 41.4381 239.996 38.1381C246.196 34.7381 253.396 33.0381 261.596 33.0381C269.496 33.0381 276.346 34.6381 282.146 37.8381C287.946 41.0381 292.446 45.4881 295.646 51.1881C298.846 56.8881 300.446 63.5881 300.446 71.2881C300.446 72.8881 300.396 74.3881 300.296 75.7881C300.196 77.0881 300.046 78.3381 299.846 79.5381H233.546V64.6881H281.696L277.796 67.3881C277.796 61.1881 276.296 56.6381 273.296 53.7381C270.396 50.7381 266.396 49.2381 261.296 49.2381C255.396 49.2381 250.796 51.2381 247.496 55.2381C244.296 59.2381 242.696 65.2381 242.696 73.2381C242.696 81.0381 244.296 86.8381 247.496 90.6381C250.796 94.4381 255.696 96.3381 262.196 96.3381C265.796 96.3381 268.896 95.7381 271.496 94.5381C274.096 93.3381 276.046 91.3881 277.346 88.6881H298.496C295.996 96.0881 291.696 101.938 285.596 106.238C279.596 110.438 271.846 112.538 262.346 112.538Z" fill="white"/>
<path d="M312.479 111.038V34.5381H334.529V52.5381H334.979V111.038H312.479ZM334.979 71.1381L333.029 52.9881C334.828 46.4881 337.779 41.5381 341.879 38.1381C345.979 34.7381 351.079 33.0381 357.179 33.0381C359.079 33.0381 360.479 33.2381 361.379 33.6381V54.6381C360.879 54.4381 360.178 54.3381 359.279 54.3381C358.379 54.2381 357.279 54.1881 355.979 54.1881C348.779 54.1881 343.479 55.4881 340.079 58.0881C336.679 60.5881 334.979 64.9381 334.979 71.1381Z" fill="white"/>
<path d="M417.611 111.038C417.011 108.838 416.561 106.488 416.261 103.988C416.061 101.488 415.961 98.5881 415.961 95.2881H415.361V59.1381C415.361 56.0381 414.311 53.6381 412.211 51.9381C410.211 50.1381 407.211 49.2381 403.211 49.2381C399.411 49.2381 396.361 49.8881 394.061 51.1881C391.861 52.4881 390.411 54.3881 389.711 56.8881H368.261C369.261 49.9881 372.811 44.2881 378.911 39.7881C385.011 35.2881 393.361 33.0381 403.961 33.0381C414.961 33.0381 423.361 35.4881 429.161 40.3881C434.961 45.2881 437.861 52.3381 437.861 61.5381V95.2881C437.861 97.7881 438.011 100.338 438.311 102.938C438.711 105.438 439.311 108.138 440.111 111.038H417.611ZM390.911 112.538C383.311 112.538 377.261 110.638 372.761 106.838C368.261 102.938 366.011 97.7881 366.011 91.3881C366.011 84.2881 368.661 78.5881 373.961 74.2881C379.361 69.8881 386.861 67.0381 396.461 65.7381L418.811 62.5881V75.6381L400.211 78.4881C396.211 79.0881 393.261 80.1881 391.361 81.7881C389.461 83.3881 388.511 85.5881 388.511 88.3881C388.511 90.8881 389.411 92.7881 391.211 94.0881C393.011 95.3881 395.411 96.0381 398.411 96.0381C403.111 96.0381 407.111 94.7881 410.411 92.2881C413.711 89.6881 415.361 86.6881 415.361 83.2881L417.461 95.2881C415.261 100.988 411.911 105.288 407.411 108.188C402.911 111.088 397.411 112.538 390.911 112.538Z" fill="white"/>
<path d="M488.046 112.538C480.046 112.538 472.996 110.838 466.896 107.438C460.796 104.038 455.996 99.3381 452.496 93.3381C449.096 87.3381 447.396 80.4881 447.396 72.7881C447.396 65.0881 449.096 58.2381 452.496 52.2381C455.996 46.2381 460.796 41.5381 466.896 38.1381C472.996 34.7381 480.046 33.0381 488.046 33.0381C494.746 33.0381 500.746 34.2881 506.046 36.7881C511.446 39.1881 515.846 42.5381 519.246 46.8381C522.746 51.1381 524.996 56.1881 525.996 61.9881H504.246C503.146 58.2881 501.146 55.4881 498.246 53.5881C495.447 51.6881 492.146 50.7381 488.346 50.7381C484.746 50.7381 481.596 51.6381 478.896 53.4381C476.296 55.2381 474.296 57.7881 472.896 61.0881C471.496 64.3881 470.796 68.2881 470.796 72.7881C470.796 77.2881 471.496 81.1881 472.896 84.4881C474.296 87.7881 476.296 90.3381 478.896 92.1381C481.596 93.9381 484.746 94.8381 488.346 94.8381C492.146 94.8381 495.447 93.8881 498.246 91.9881C501.146 90.0881 503.146 87.2881 504.246 83.5881H525.996C524.996 89.3881 522.746 94.4381 519.246 98.7381C515.846 103.038 511.446 106.438 506.046 108.938C500.746 111.338 494.746 112.538 488.046 112.538Z" fill="white"/>
<path d="M572.9 112.688C563.1 112.688 555.8 110.338 551 105.638C546.3 100.838 543.95 93.5881 543.95 83.8881V17.4381L566.45 9.03809V84.6381C566.45 88.0381 567.4 90.5881 569.3 92.2881C571.2 93.9881 574.15 94.8381 578.15 94.8381C579.65 94.8381 581.05 94.6881 582.35 94.3881C583.65 94.0881 584.95 93.7381 586.25 93.3381V110.438C584.95 111.138 583.1 111.688 580.7 112.088C578.4 112.488 575.8 112.688 572.9 112.688ZM529.7 51.6381V34.5381H586.25V51.6381H529.7Z" fill="white"/>
<path d="M598.635 176.038V58.5381H628.135L627.722 176.038H598.635ZM597.885 24.3381V0.0380859H628.885V24.3381H597.885Z" fill="white"/>
<path d="M668.963 111.038L638.813 34.5381H662.963L686.513 105.938H673.913L697.313 34.5381H720.863L690.713 111.038H668.963Z" fill="white"/>
<path d="M763.215 112.538C754.715 112.538 747.315 110.888 741.015 107.588C734.715 104.188 729.815 99.4881 726.315 93.4881C722.915 87.4881 721.215 80.5881 721.215 72.7881C721.215 64.8881 722.915 57.9881 726.315 52.0881C729.815 46.0881 734.665 41.4381 740.865 38.1381C747.065 34.7381 754.265 33.0381 762.465 33.0381C770.365 33.0381 777.215 34.6381 783.015 37.8381C788.815 41.0381 793.315 45.4881 796.515 51.1881C799.715 56.8881 801.315 63.5881 801.315 71.2881C801.315 72.8881 801.265 74.3881 801.165 75.7881C801.065 77.0881 800.915 78.3381 800.715 79.5381H734.415V64.6881H782.565L778.665 67.3881C778.665 61.1881 777.165 56.6381 774.165 53.7381C771.265 50.7381 767.265 49.2381 762.165 49.2381C756.265 49.2381 751.665 51.2381 748.365 55.2381C745.165 59.2381 743.565 65.2381 743.565 73.2381C743.565 81.0381 745.165 86.8381 748.365 90.6381C751.665 94.4381 756.565 96.3381 763.065 96.3381C766.665 96.3381 769.765 95.7381 772.365 94.5381C774.965 93.3381 776.915 91.3881 778.215 88.6881H799.365C796.865 96.0881 792.565 101.938 786.465 106.238C780.465 110.438 772.715 112.538 763.215 112.538Z" fill="white"/>
<mask id="path-2-outside-1_921_101" maskUnits="userSpaceOnUse" x="0.962891" y="150.5" width="939" height="117" fill="black">
<rect fill="white" x="0.962891" y="150.5" width="939" height="117"/>
<path d="M58.1129 264.5C50.3129 264.5 43.1129 263.15 36.5129 260.45C29.9129 257.65 24.1629 253.75 19.2629 248.75C14.4629 243.75 10.7129 237.85 8.01289 231.05C5.31289 224.15 3.96289 216.65 3.96289 208.55C3.96289 200.45 5.26289 193.05 7.86289 186.35C10.5629 179.65 14.3129 173.85 19.1129 168.95C24.0129 163.95 29.7629 160.15 36.3629 157.55C42.9629 154.85 50.2129 153.5 58.1129 153.5C67.0129 153.5 75.0129 155.25 82.1129 158.75C89.3129 162.15 95.1629 167 99.6629 173.3C104.263 179.5 107.063 186.8 108.063 195.2H85.5629C84.2629 187.5 81.1129 181.7 76.1129 177.8C71.1129 173.8 65.1629 171.8 58.2629 171.8C52.1629 171.8 46.7629 173.25 42.0629 176.15C37.4629 179.05 33.8629 183.25 31.2629 188.75C28.6629 194.15 27.3629 200.7 27.3629 208.4C27.3629 216.2 28.6629 222.95 31.2629 228.65C33.9629 234.25 37.6629 238.6 42.3629 241.7C47.0629 244.7 52.4629 246.2 58.5629 246.2C65.0629 246.2 70.8129 244.25 75.8129 240.35C80.8129 236.45 84.0629 230.65 85.5629 222.95H108.363C107.063 231.35 104.113 238.7 99.5129 245C94.9129 251.2 89.0629 256 81.9629 259.4C74.8629 262.8 66.9129 264.5 58.1129 264.5Z"/>
<path d="M278.721 263V155H330.021C338.021 155 344.871 156.4 350.571 159.2C356.371 162 360.821 165.9 363.921 170.9C367.121 175.9 368.721 181.75 368.721 188.45C368.721 195.15 367.121 201.05 363.921 206.15C360.721 211.25 356.221 215.25 350.421 218.15C344.721 220.95 337.921 222.35 330.021 222.35H297.021V204.65H328.821C334.121 204.65 338.221 203.2 341.121 200.3C344.121 197.3 345.621 193.4 345.621 188.6C345.621 183.8 344.121 179.95 341.121 177.05C338.221 174.15 334.121 172.7 328.821 172.7H301.821V263H278.721Z"/>
<path d="M417.286 263V219.35L377.086 155H404.836L436.636 212.15H423.586L455.236 155H480.586L440.386 219.35V263H417.286Z"/>
<path d="M498.723 263V155H521.823V263H498.723ZM509.523 263V245.3H579.123V263H509.523ZM509.523 216.5V199.1H573.873V216.5H509.523ZM509.523 172.7V155H577.323V172.7H509.523Z"/>
<path d="M601.619 263V199H624.719V263H601.619ZM612.419 263V245.3H676.619V263H612.419Z"/>
<path d="M699.096 263V155H722.196V263H699.096Z"/>
<path d="M777.532 263V172.7H742.282V155H835.882V172.7H800.632V263H777.532Z"/>
<path d="M855.963 263V155H879.063V263H855.963ZM866.763 263V245.3H936.363V263H866.763ZM866.763 216.5V199.1H931.113V216.5H866.763ZM866.763 172.7V155H934.563V172.7H866.763Z"/>
</mask>
<path d="M58.1129 264.5C50.3129 264.5 43.1129 263.15 36.5129 260.45C29.9129 257.65 24.1629 253.75 19.2629 248.75C14.4629 243.75 10.7129 237.85 8.01289 231.05C5.31289 224.15 3.96289 216.65 3.96289 208.55C3.96289 200.45 5.26289 193.05 7.86289 186.35C10.5629 179.65 14.3129 173.85 19.1129 168.95C24.0129 163.95 29.7629 160.15 36.3629 157.55C42.9629 154.85 50.2129 153.5 58.1129 153.5C67.0129 153.5 75.0129 155.25 82.1129 158.75C89.3129 162.15 95.1629 167 99.6629 173.3C104.263 179.5 107.063 186.8 108.063 195.2H85.5629C84.2629 187.5 81.1129 181.7 76.1129 177.8C71.1129 173.8 65.1629 171.8 58.2629 171.8C52.1629 171.8 46.7629 173.25 42.0629 176.15C37.4629 179.05 33.8629 183.25 31.2629 188.75C28.6629 194.15 27.3629 200.7 27.3629 208.4C27.3629 216.2 28.6629 222.95 31.2629 228.65C33.9629 234.25 37.6629 238.6 42.3629 241.7C47.0629 244.7 52.4629 246.2 58.5629 246.2C65.0629 246.2 70.8129 244.25 75.8129 240.35C80.8129 236.45 84.0629 230.65 85.5629 222.95H108.363C107.063 231.35 104.113 238.7 99.5129 245C94.9129 251.2 89.0629 256 81.9629 259.4C74.8629 262.8 66.9129 264.5 58.1129 264.5Z" fill="white"/>
<path d="M278.721 263V155H330.021C338.021 155 344.871 156.4 350.571 159.2C356.371 162 360.821 165.9 363.921 170.9C367.121 175.9 368.721 181.75 368.721 188.45C368.721 195.15 367.121 201.05 363.921 206.15C360.721 211.25 356.221 215.25 350.421 218.15C344.721 220.95 337.921 222.35 330.021 222.35H297.021V204.65H328.821C334.121 204.65 338.221 203.2 341.121 200.3C344.121 197.3 345.621 193.4 345.621 188.6C345.621 183.8 344.121 179.95 341.121 177.05C338.221 174.15 334.121 172.7 328.821 172.7H301.821V263H278.721Z" fill="white"/>
<path d="M417.286 263V219.35L377.086 155H404.836L436.636 212.15H423.586L455.236 155H480.586L440.386 219.35V263H417.286Z" fill="white"/>
<path d="M498.723 263V155H521.823V263H498.723ZM509.523 263V245.3H579.123V263H509.523ZM509.523 216.5V199.1H573.873V216.5H509.523ZM509.523 172.7V155H577.323V172.7H509.523Z" fill="white"/>
<path d="M601.619 263V199H624.719V263H601.619ZM612.419 263V245.3H676.619V263H612.419Z" fill="white"/>
<path d="M699.096 263V155H722.196V263H699.096Z" fill="white"/>
<path d="M777.532 263V172.7H742.282V155H835.882V172.7H800.632V263H777.532Z" fill="white"/>
<path d="M855.963 263V155H879.063V263H855.963ZM866.763 263V245.3H936.363V263H866.763ZM866.763 216.5V199.1H931.113V216.5H866.763ZM866.763 172.7V155H934.563V172.7H866.763Z" fill="white"/>
<path d="M58.1129 264.5C50.3129 264.5 43.1129 263.15 36.5129 260.45C29.9129 257.65 24.1629 253.75 19.2629 248.75C14.4629 243.75 10.7129 237.85 8.01289 231.05C5.31289 224.15 3.96289 216.65 3.96289 208.55C3.96289 200.45 5.26289 193.05 7.86289 186.35C10.5629 179.65 14.3129 173.85 19.1129 168.95C24.0129 163.95 29.7629 160.15 36.3629 157.55C42.9629 154.85 50.2129 153.5 58.1129 153.5C67.0129 153.5 75.0129 155.25 82.1129 158.75C89.3129 162.15 95.1629 167 99.6629 173.3C104.263 179.5 107.063 186.8 108.063 195.2H85.5629C84.2629 187.5 81.1129 181.7 76.1129 177.8C71.1129 173.8 65.1629 171.8 58.2629 171.8C52.1629 171.8 46.7629 173.25 42.0629 176.15C37.4629 179.05 33.8629 183.25 31.2629 188.75C28.6629 194.15 27.3629 200.7 27.3629 208.4C27.3629 216.2 28.6629 222.95 31.2629 228.65C33.9629 234.25 37.6629 238.6 42.3629 241.7C47.0629 244.7 52.4629 246.2 58.5629 246.2C65.0629 246.2 70.8129 244.25 75.8129 240.35C80.8129 236.45 84.0629 230.65 85.5629 222.95H108.363C107.063 231.35 104.113 238.7 99.5129 245C94.9129 251.2 89.0629 256 81.9629 259.4C74.8629 262.8 66.9129 264.5 58.1129 264.5Z" stroke="white" stroke-width="6" mask="url(#path-2-outside-1_921_101)"/>
<path d="M278.721 263V155H330.021C338.021 155 344.871 156.4 350.571 159.2C356.371 162 360.821 165.9 363.921 170.9C367.121 175.9 368.721 181.75 368.721 188.45C368.721 195.15 367.121 201.05 363.921 206.15C360.721 211.25 356.221 215.25 350.421 218.15C344.721 220.95 337.921 222.35 330.021 222.35H297.021V204.65H328.821C334.121 204.65 338.221 203.2 341.121 200.3C344.121 197.3 345.621 193.4 345.621 188.6C345.621 183.8 344.121 179.95 341.121 177.05C338.221 174.15 334.121 172.7 328.821 172.7H301.821V263H278.721Z" stroke="white" stroke-width="6" mask="url(#path-2-outside-1_921_101)"/>
<path d="M417.286 263V219.35L377.086 155H404.836L436.636 212.15H423.586L455.236 155H480.586L440.386 219.35V263H417.286Z" stroke="white" stroke-width="6" mask="url(#path-2-outside-1_921_101)"/>
<path d="M498.723 263V155H521.823V263H498.723ZM509.523 263V245.3H579.123V263H509.523ZM509.523 216.5V199.1H573.873V216.5H509.523ZM509.523 172.7V155H577.323V172.7H509.523Z" stroke="white" stroke-width="6" mask="url(#path-2-outside-1_921_101)"/>
<path d="M601.619 263V199H624.719V263H601.619ZM612.419 263V245.3H676.619V263H612.419Z" stroke="white" stroke-width="6" mask="url(#path-2-outside-1_921_101)"/>
<path d="M699.096 263V155H722.196V263H699.096Z" stroke="white" stroke-width="6" mask="url(#path-2-outside-1_921_101)"/>
<path d="M777.532 263V172.7H742.282V155H835.882V172.7H800.632V263H777.532Z" stroke="white" stroke-width="6" mask="url(#path-2-outside-1_921_101)"/>
<path d="M855.963 263V155H879.063V263H855.963ZM866.763 263V245.3H936.363V263H866.763ZM866.763 216.5V199.1H931.113V216.5H866.763ZM866.763 172.7V155H934.563V172.7H866.763Z" stroke="white" stroke-width="6" mask="url(#path-2-outside-1_921_101)"/>
<mask id="mask0_921_101" style="mask-type:luminance" maskUnits="userSpaceOnUse" x="121" y="145" width="132" height="126">
<path d="M239.493 208.201C239.493 177.618 214.701 152.826 184.117 152.826C153.534 152.826 128.742 177.618 128.742 208.201C128.742 238.785 153.534 263.577 184.117 263.577C214.701 263.577 239.493 238.785 239.493 208.201Z" fill="white" stroke="white" stroke-width="14" stroke-linejoin="round"/>
<path d="M224.533 240.541L242.48 257.799" stroke="white" stroke-width="20" stroke-linecap="round" stroke-linejoin="round"/>
</mask>
<g mask="url(#mask0_921_101)">
<path d="M115.713 276.607L115.713 120.254L272.067 120.254L272.067 276.607L115.713 276.607Z" fill="#0088FF"/>
<path d="M210.968 231.358L193.535 256.869L185.612 244.964L177.688 256.869L160.255 231.358C130.145 239.862 130.145 256.869 130.145 290.033C130.145 290.033 153.916 306.897 180.857 306.897H190.366C217.307 306.046 241.079 290.033 241.079 290.033C241.079 256.869 241.079 239.862 210.968 231.358ZM185.612 237.311L172.933 231.358L185.612 244.964L198.29 231.358L185.612 237.311ZM185.612 164.181C170.556 164.181 161.84 179.487 164.217 196.494C166.594 213.501 174.518 225.406 185.612 225.406C196.705 225.406 204.629 213.501 207.006 196.494C209.383 178.637 200.667 164.181 185.612 164.181Z" fill="black"/>
</g>
</svg>
