<svg width="939" height="272" viewBox="0 0 939 272" fill="none" xmlns="http://www.w3.org/2000/svg">
<path d="M35.2324 111.857V59.3569H57.7324V111.857H35.2324ZM34.4824 25.1569V0.856934H58.4824V25.1569H34.4824Z" fill="white"/>
<path d="M75.6621 111.857V35.3569H97.7121V53.3569H98.1621V111.857H75.6621ZM128.912 111.857V64.4569C128.912 60.2569 127.812 57.1069 125.612 55.0069C123.512 52.9069 120.412 51.8569 116.312 51.8569C112.812 51.8569 109.662 52.6569 106.862 54.2569C104.162 55.8569 102.012 58.0569 100.412 60.8569C98.9121 63.6569 98.1621 66.9569 98.1621 70.7569L96.2121 52.3069C98.7121 46.7069 102.362 42.2569 107.162 38.9569C112.062 35.5569 118.062 33.8569 125.162 33.8569C133.662 33.8569 140.162 36.2569 144.662 41.0569C149.162 45.7569 151.412 52.1069 151.412 60.1069V111.857H128.912Z" fill="white"/>
<path d="M201.611 113.507C191.811 113.507 184.511 111.157 179.711 106.457C175.011 101.657 172.661 94.4069 172.661 84.7069V18.2569L195.161 9.85693V85.4569C195.161 88.8569 196.111 91.4069 198.011 93.1069C199.911 94.8069 202.861 95.6569 206.861 95.6569C208.361 95.6569 209.761 95.5069 211.061 95.2069C212.361 94.9069 213.661 94.5569 214.961 94.1569V111.257C213.661 111.957 211.811 112.507 209.411 112.907C207.111 113.307 204.511 113.507 201.611 113.507ZM158.411 52.4569V35.3569H214.961V52.4569H158.411Z" fill="white"/>
<path d="M261.809 113.357C253.309 113.357 245.909 111.707 239.609 108.407C233.309 105.007 228.409 100.307 224.909 94.3069C221.509 88.3069 219.809 81.4069 219.809 73.6069C219.809 65.7069 221.509 58.8069 224.909 52.9069C228.409 46.9069 233.259 42.2569 239.459 38.9569C245.659 35.5569 252.859 33.8569 261.059 33.8569C268.959 33.8569 275.809 35.4569 281.609 38.6569C287.409 41.8569 291.909 46.3069 295.109 52.0069C298.309 57.7069 299.909 64.4069 299.909 72.1069C299.909 73.7069 299.859 75.2069 299.759 76.6069C299.659 77.9069 299.509 79.1569 299.309 80.3569H233.009V65.5069H281.159L277.259 68.2069C277.259 62.0069 275.759 57.4569 272.759 54.5569C269.859 51.5569 265.859 50.0569 260.759 50.0569C254.859 50.0569 250.259 52.0569 246.959 56.0569C243.759 60.0569 242.159 66.0569 242.159 74.0569C242.159 81.8569 243.759 87.6569 246.959 91.4569C250.259 95.2569 255.159 97.1569 261.659 97.1569C265.259 97.1569 268.359 96.5569 270.959 95.3569C273.559 94.1569 275.509 92.2069 276.809 89.5069H297.959C295.459 96.9069 291.159 102.757 285.059 107.057C279.059 111.257 271.309 113.357 261.809 113.357Z" fill="white"/>
<path d="M311.941 111.857V35.3569H333.991V53.3569H334.441V111.857H311.941ZM334.441 71.9569L332.491 53.8069C334.291 47.3069 337.241 42.3569 341.341 38.9569C345.441 35.5569 350.541 33.8569 356.641 33.8569C358.541 33.8569 359.941 34.0569 360.841 34.4569V55.4569C360.341 55.2569 359.641 55.1569 358.741 55.1569C357.841 55.0569 356.741 55.0069 355.441 55.0069C348.241 55.0069 342.941 56.3069 339.541 58.9069C336.141 61.4069 334.441 65.7569 334.441 71.9569Z" fill="white"/>
<path d="M417.074 111.857C416.474 109.657 416.024 107.307 415.724 104.807C415.524 102.307 415.424 99.4069 415.424 96.1069H414.824V59.9569C414.824 56.8569 413.774 54.4569 411.674 52.7569C409.674 50.9569 406.674 50.0569 402.674 50.0569C398.874 50.0569 395.824 50.7069 393.524 52.0069C391.324 53.3069 389.874 55.2069 389.174 57.7069H367.724C368.724 50.8069 372.274 45.1069 378.374 40.6069C384.474 36.1069 392.824 33.8569 403.424 33.8569C414.424 33.8569 422.824 36.3069 428.624 41.2069C434.424 46.1069 437.324 53.1569 437.324 62.3569V96.1069C437.324 98.6069 437.474 101.157 437.774 103.757C438.174 106.257 438.774 108.957 439.574 111.857H417.074ZM390.374 113.357C382.774 113.357 376.724 111.457 372.224 107.657C367.724 103.757 365.474 98.6069 365.474 92.2069C365.474 85.1069 368.124 79.4069 373.424 75.1069C378.824 70.7069 386.324 67.8569 395.924 66.5569L418.274 63.4069V76.4569L399.674 79.3069C395.674 79.9069 392.724 81.0069 390.824 82.6069C388.924 84.2069 387.974 86.4069 387.974 89.2069C387.974 91.7069 388.874 93.6069 390.674 94.9069C392.474 96.2069 394.874 96.8569 397.874 96.8569C402.574 96.8569 406.574 95.6069 409.874 93.1069C413.174 90.5069 414.824 87.5069 414.824 84.1069L416.924 96.1069C414.724 101.807 411.374 106.107 406.874 109.007C402.374 111.907 396.874 113.357 390.374 113.357Z" fill="white"/>
<path d="M487.509 113.357C479.509 113.357 472.459 111.657 466.359 108.257C460.259 104.857 455.459 100.157 451.959 94.1569C448.559 88.1569 446.859 81.3069 446.859 73.6069C446.859 65.9069 448.559 59.0569 451.959 53.0569C455.459 47.0569 460.259 42.3569 466.359 38.9569C472.459 35.5569 479.509 33.8569 487.509 33.8569C494.209 33.8569 500.209 35.1069 505.509 37.6069C510.909 40.0069 515.309 43.3569 518.709 47.6569C522.209 51.9569 524.459 57.0069 525.459 62.8069H503.709C502.609 59.1069 500.609 56.3069 497.709 54.4069C494.909 52.5069 491.609 51.5569 487.809 51.5569C484.209 51.5569 481.059 52.4569 478.359 54.2569C475.759 56.0569 473.759 58.6069 472.359 61.9069C470.959 65.2069 470.259 69.1069 470.259 73.6069C470.259 78.1069 470.959 82.0069 472.359 85.3069C473.759 88.6069 475.759 91.1569 478.359 92.9569C481.059 94.7569 484.209 95.6569 487.809 95.6569C491.609 95.6569 494.909 94.7069 497.709 92.8069C500.609 90.9069 502.609 88.1069 503.709 84.4069H525.459C524.459 90.2069 522.209 95.2569 518.709 99.5569C515.309 103.857 510.909 107.257 505.509 109.757C500.209 112.157 494.209 113.357 487.509 113.357Z" fill="white"/>
<path d="M572.362 113.507C562.562 113.507 555.263 111.157 550.463 106.457C545.763 101.657 543.413 94.4069 543.413 84.7069V18.2569L565.912 9.85693V85.4569C565.912 88.8569 566.862 91.4069 568.763 93.1069C570.663 94.8069 573.612 95.6569 577.612 95.6569C579.112 95.6569 580.513 95.5069 581.812 95.2069C583.112 94.9069 584.413 94.5569 585.713 94.1569V111.257C584.413 111.957 582.562 112.507 580.162 112.907C577.862 113.307 575.263 113.507 572.362 113.507ZM529.163 52.4569V35.3569H585.713V52.4569H529.163Z" fill="white"/>
<path d="M598.098 176.857V59.3569H627.598L627.185 176.857H598.098ZM597.348 25.1569V0.856934H628.348V25.1569H597.348Z" fill="white"/>
<path d="M668.426 111.857L638.276 35.3569H662.426L685.976 106.757H673.376L696.776 35.3569H720.326L690.176 111.857H668.426Z" fill="white"/>
<path d="M762.678 113.357C754.178 113.357 746.778 111.707 740.478 108.407C734.178 105.007 729.278 100.307 725.778 94.3069C722.378 88.3069 720.678 81.4069 720.678 73.6069C720.678 65.7069 722.378 58.8069 725.778 52.9069C729.278 46.9069 734.128 42.2569 740.328 38.9569C746.528 35.5569 753.728 33.8569 761.928 33.8569C769.828 33.8569 776.678 35.4569 782.478 38.6569C788.278 41.8569 792.778 46.3069 795.978 52.0069C799.178 57.7069 800.778 64.4069 800.778 72.1069C800.778 73.7069 800.728 75.2069 800.628 76.6069C800.528 77.9069 800.378 79.1569 800.178 80.3569H733.878V65.5069H782.028L778.128 68.2069C778.128 62.0069 776.628 57.4569 773.628 54.5569C770.728 51.5569 766.728 50.0569 761.628 50.0569C755.728 50.0569 751.128 52.0569 747.828 56.0569C744.628 60.0569 743.028 66.0569 743.028 74.0569C743.028 81.8569 744.628 87.6569 747.828 91.4569C751.128 95.2569 756.028 97.1569 762.528 97.1569C766.128 97.1569 769.228 96.5569 771.828 95.3569C774.428 94.1569 776.378 92.2069 777.678 89.5069H798.828C796.328 96.9069 792.028 102.757 785.928 107.057C779.928 111.257 772.178 113.357 762.678 113.357Z" fill="white"/>
<mask id="path-2-outside-1_921_101" maskUnits="userSpaceOnUse" x="0.425781" y="151.319" width="939" height="117" fill="black">
<rect fill="white" x="0.425781" y="151.319" width="939" height="117"/>
<path d="M57.5758 265.319C49.7758 265.319 42.5758 263.969 35.9758 261.269C29.3758 258.469 23.6258 254.569 18.7258 249.569C13.9258 244.569 10.1758 238.669 7.47578 231.869C4.77578 224.969 3.42578 217.469 3.42578 209.369C3.42578 201.269 4.72578 193.869 7.32578 187.169C10.0258 180.469 13.7758 174.669 18.5758 169.769C23.4758 164.769 29.2258 160.969 35.8258 158.369C42.4258 155.669 49.6758 154.319 57.5758 154.319C66.4758 154.319 74.4758 156.069 81.5758 159.569C88.7758 162.969 94.6258 167.819 99.1258 174.119C103.726 180.319 106.526 187.619 107.526 196.019H85.0258C83.7258 188.319 80.5758 182.519 75.5758 178.619C70.5758 174.619 64.6258 172.619 57.7258 172.619C51.6258 172.619 46.2258 174.069 41.5258 176.969C36.9258 179.869 33.3258 184.069 30.7258 189.569C28.1258 194.969 26.8258 201.519 26.8258 209.219C26.8258 217.019 28.1258 223.769 30.7258 229.469C33.4258 235.069 37.1258 239.419 41.8258 242.519C46.5258 245.519 51.9258 247.019 58.0258 247.019C64.5258 247.019 70.2758 245.069 75.2758 241.169C80.2758 237.269 83.5258 231.469 85.0258 223.769H107.826C106.526 232.169 103.576 239.519 98.9758 245.819C94.3758 252.019 88.5258 256.819 81.4258 260.219C74.3258 263.619 66.3758 265.319 57.5758 265.319Z"/>
<path d="M278.184 263.819V155.819H329.484C337.484 155.819 344.334 157.219 350.034 160.019C355.834 162.819 360.284 166.719 363.384 171.719C366.584 176.719 368.184 182.569 368.184 189.269C368.184 195.969 366.584 201.869 363.384 206.969C360.184 212.069 355.684 216.069 349.884 218.969C344.184 221.769 337.384 223.169 329.484 223.169H296.484V205.469H328.284C333.584 205.469 337.684 204.019 340.584 201.119C343.584 198.119 345.084 194.219 345.084 189.419C345.084 184.619 343.584 180.769 340.584 177.869C337.684 174.969 333.584 173.519 328.284 173.519H301.284V263.819H278.184Z"/>
<path d="M416.748 263.819V220.169L376.548 155.819H404.298L436.098 212.969H423.048L454.698 155.819H480.048L439.848 220.169V263.819H416.748Z"/>
<path d="M498.186 263.819V155.819H521.286V263.819H498.186ZM508.986 263.819V246.119H578.586V263.819H508.986ZM508.986 217.319V199.919H573.336V217.319H508.986ZM508.986 173.519V155.819H576.786V173.519H508.986Z"/>
<path d="M601.082 263.819V199.819H624.182V263.819H601.082ZM611.882 263.819V246.119H676.082V263.819H611.882Z"/>
<path d="M698.559 263.819V155.819H721.659V263.819H698.559Z"/>
<path d="M776.995 263.819V173.519H741.745V155.819H835.345V173.519H800.095V263.819H776.995Z"/>
<path d="M855.426 263.819V155.819H878.526V263.819H855.426ZM866.226 263.819V246.119H935.826V263.819H866.226ZM866.226 217.319V199.919H930.576V217.319H866.226ZM866.226 173.519V155.819H934.026V173.519H866.226Z"/>
</mask>
<path d="M57.5758 265.319C49.7758 265.319 42.5758 263.969 35.9758 261.269C29.3758 258.469 23.6258 254.569 18.7258 249.569C13.9258 244.569 10.1758 238.669 7.47578 231.869C4.77578 224.969 3.42578 217.469 3.42578 209.369C3.42578 201.269 4.72578 193.869 7.32578 187.169C10.0258 180.469 13.7758 174.669 18.5758 169.769C23.4758 164.769 29.2258 160.969 35.8258 158.369C42.4258 155.669 49.6758 154.319 57.5758 154.319C66.4758 154.319 74.4758 156.069 81.5758 159.569C88.7758 162.969 94.6258 167.819 99.1258 174.119C103.726 180.319 106.526 187.619 107.526 196.019H85.0258C83.7258 188.319 80.5758 182.519 75.5758 178.619C70.5758 174.619 64.6258 172.619 57.7258 172.619C51.6258 172.619 46.2258 174.069 41.5258 176.969C36.9258 179.869 33.3258 184.069 30.7258 189.569C28.1258 194.969 26.8258 201.519 26.8258 209.219C26.8258 217.019 28.1258 223.769 30.7258 229.469C33.4258 235.069 37.1258 239.419 41.8258 242.519C46.5258 245.519 51.9258 247.019 58.0258 247.019C64.5258 247.019 70.2758 245.069 75.2758 241.169C80.2758 237.269 83.5258 231.469 85.0258 223.769H107.826C106.526 232.169 103.576 239.519 98.9758 245.819C94.3758 252.019 88.5258 256.819 81.4258 260.219C74.3258 263.619 66.3758 265.319 57.5758 265.319Z" fill="white"/>
<path d="M278.184 263.819V155.819H329.484C337.484 155.819 344.334 157.219 350.034 160.019C355.834 162.819 360.284 166.719 363.384 171.719C366.584 176.719 368.184 182.569 368.184 189.269C368.184 195.969 366.584 201.869 363.384 206.969C360.184 212.069 355.684 216.069 349.884 218.969C344.184 221.769 337.384 223.169 329.484 223.169H296.484V205.469H328.284C333.584 205.469 337.684 204.019 340.584 201.119C343.584 198.119 345.084 194.219 345.084 189.419C345.084 184.619 343.584 180.769 340.584 177.869C337.684 174.969 333.584 173.519 328.284 173.519H301.284V263.819H278.184Z" fill="white"/>
<path d="M416.748 263.819V220.169L376.548 155.819H404.298L436.098 212.969H423.048L454.698 155.819H480.048L439.848 220.169V263.819H416.748Z" fill="white"/>
<path d="M498.186 263.819V155.819H521.286V263.819H498.186ZM508.986 263.819V246.119H578.586V263.819H508.986ZM508.986 217.319V199.919H573.336V217.319H508.986ZM508.986 173.519V155.819H576.786V173.519H508.986Z" fill="white"/>
<path d="M601.082 263.819V199.819H624.182V263.819H601.082ZM611.882 263.819V246.119H676.082V263.819H611.882Z" fill="white"/>
<path d="M698.559 263.819V155.819H721.659V263.819H698.559Z" fill="white"/>
<path d="M776.995 263.819V173.519H741.745V155.819H835.345V173.519H800.095V263.819H776.995Z" fill="white"/>
<path d="M855.426 263.819V155.819H878.526V263.819H855.426ZM866.226 263.819V246.119H935.826V263.819H866.226ZM866.226 217.319V199.919H930.576V217.319H866.226ZM866.226 173.519V155.819H934.026V173.519H866.226Z" fill="white"/>
<path d="M57.5758 265.319C49.7758 265.319 42.5758 263.969 35.9758 261.269C29.3758 258.469 23.6258 254.569 18.7258 249.569C13.9258 244.569 10.1758 238.669 7.47578 231.869C4.77578 224.969 3.42578 217.469 3.42578 209.369C3.42578 201.269 4.72578 193.869 7.32578 187.169C10.0258 180.469 13.7758 174.669 18.5758 169.769C23.4758 164.769 29.2258 160.969 35.8258 158.369C42.4258 155.669 49.6758 154.319 57.5758 154.319C66.4758 154.319 74.4758 156.069 81.5758 159.569C88.7758 162.969 94.6258 167.819 99.1258 174.119C103.726 180.319 106.526 187.619 107.526 196.019H85.0258C83.7258 188.319 80.5758 182.519 75.5758 178.619C70.5758 174.619 64.6258 172.619 57.7258 172.619C51.6258 172.619 46.2258 174.069 41.5258 176.969C36.9258 179.869 33.3258 184.069 30.7258 189.569C28.1258 194.969 26.8258 201.519 26.8258 209.219C26.8258 217.019 28.1258 223.769 30.7258 229.469C33.4258 235.069 37.1258 239.419 41.8258 242.519C46.5258 245.519 51.9258 247.019 58.0258 247.019C64.5258 247.019 70.2758 245.069 75.2758 241.169C80.2758 237.269 83.5258 231.469 85.0258 223.769H107.826C106.526 232.169 103.576 239.519 98.9758 245.819C94.3758 252.019 88.5258 256.819 81.4258 260.219C74.3258 263.619 66.3758 265.319 57.5758 265.319Z" stroke="white" stroke-width="6" mask="url(#path-2-outside-1_921_101)"/>
<path d="M278.184 263.819V155.819H329.484C337.484 155.819 344.334 157.219 350.034 160.019C355.834 162.819 360.284 166.719 363.384 171.719C366.584 176.719 368.184 182.569 368.184 189.269C368.184 195.969 366.584 201.869 363.384 206.969C360.184 212.069 355.684 216.069 349.884 218.969C344.184 221.769 337.384 223.169 329.484 223.169H296.484V205.469H328.284C333.584 205.469 337.684 204.019 340.584 201.119C343.584 198.119 345.084 194.219 345.084 189.419C345.084 184.619 343.584 180.769 340.584 177.869C337.684 174.969 333.584 173.519 328.284 173.519H301.284V263.819H278.184Z" stroke="white" stroke-width="6" mask="url(#path-2-outside-1_921_101)"/>
<path d="M416.748 263.819V220.169L376.548 155.819H404.298L436.098 212.969H423.048L454.698 155.819H480.048L439.848 220.169V263.819H416.748Z" stroke="white" stroke-width="6" mask="url(#path-2-outside-1_921_101)"/>
<path d="M498.186 263.819V155.819H521.286V263.819H498.186ZM508.986 263.819V246.119H578.586V263.819H508.986ZM508.986 217.319V199.919H573.336V217.319H508.986ZM508.986 173.519V155.819H576.786V173.519H508.986Z" stroke="white" stroke-width="6" mask="url(#path-2-outside-1_921_101)"/>
<path d="M601.082 263.819V199.819H624.182V263.819H601.082ZM611.882 263.819V246.119H676.082V263.819H611.882Z" stroke="white" stroke-width="6" mask="url(#path-2-outside-1_921_101)"/>
<path d="M698.559 263.819V155.819H721.659V263.819H698.559Z" stroke="white" stroke-width="6" mask="url(#path-2-outside-1_921_101)"/>
<path d="M776.995 263.819V173.519H741.745V155.819H835.345V173.519H800.095V263.819H776.995Z" stroke="white" stroke-width="6" mask="url(#path-2-outside-1_921_101)"/>
<path d="M855.426 263.819V155.819H878.526V263.819H855.426ZM866.226 263.819V246.119H935.826V263.819H866.226ZM866.226 217.319V199.919H930.576V217.319H866.226ZM866.226 173.519V155.819H934.026V173.519H866.226Z" stroke="white" stroke-width="6" mask="url(#path-2-outside-1_921_101)"/>
<mask id="mask0_921_101" style="mask-type:luminance" maskUnits="userSpaceOnUse" x="121" y="146" width="131" height="126">
<path d="M238.956 209.02C238.956 178.437 214.164 153.645 183.58 153.645C152.997 153.645 128.205 178.437 128.205 209.02C128.205 239.604 152.997 264.396 183.58 264.396C214.164 264.396 238.956 239.604 238.956 209.02Z" fill="white" stroke="white" stroke-width="14" stroke-linejoin="round"/>
<path d="M223.996 241.359L241.943 258.618" stroke="white" stroke-width="20" stroke-linecap="round" stroke-linejoin="round"/>
</mask>
<g mask="url(#mask0_921_101)">
<path d="M115.176 277.426L115.176 121.073L271.53 121.073L271.53 277.426L115.176 277.426Z" fill="#16CDFF"/>
<path d="M210.431 232.177L192.998 257.688L185.074 245.783L177.151 257.688L159.718 232.177C129.607 240.681 129.607 257.688 129.607 290.851C129.607 290.851 153.379 307.716 180.32 307.716H189.829C216.77 306.865 240.542 290.851 240.542 290.851C240.542 257.688 240.542 240.681 210.431 232.177ZM185.074 238.13L172.396 232.177L185.074 245.783L197.753 232.177L185.074 238.13ZM185.074 165C170.019 165 161.303 180.306 163.68 197.313C166.057 214.32 173.981 226.225 185.074 226.225C196.168 226.225 204.092 214.32 206.469 197.313C208.846 179.455 200.13 165 185.074 165Z" fill="black"/>
</g>
</svg>
